<svg width="17" height="16" viewBox="0 0 17 16" fill="none" xmlns="http://www.w3.org/2000/svg">
<path fill-rule="evenodd" clip-rule="evenodd" d="M11.5151 4.14222C11.2257 3.91422 10.8071 3.96622 10.5797 4.25622L5.87639 10.2615L3.62372 7.46355C3.39172 7.17755 2.97305 7.13088 2.68639 7.36222C2.39905 7.59355 2.35439 8.01355 2.58439 8.29955L5.36372 11.7515C5.49105 11.9089 5.68172 12.0002 5.88372 12.0002H5.88839C6.09105 11.9989 6.28305 11.9049 6.40839 11.7442L11.6291 5.07755C11.8564 4.78822 11.8057 4.36888 11.5151 4.14222ZM14.8484 4.14222C14.5584 3.91422 14.1404 3.96622 13.9131 4.25622L9.20972 10.2615L8.80705 9.76222L7.96372 10.8402L8.69705 11.7515C8.82439 11.9089 9.01505 12.0002 9.21705 12.0002H9.22172C9.42439 11.9989 9.61639 11.9049 9.74172 11.7442L14.9624 5.07755C15.1897 4.78822 15.1391 4.36888 14.8484 4.14222ZM7.09085 7.62995L6.24619 8.70728L5.91819 8.29995C5.68752 8.01328 5.73219 7.59328 6.01952 7.36195C6.30685 7.13128 6.72619 7.17728 6.95685 7.46395L7.09085 7.62995Z" fill="#9A9A9A"/>
<mask id="mask0_22448_111121" style="mask-type:luminance" maskUnits="userSpaceOnUse" x="2" y="4" width="14" height="9">
<path fill-rule="evenodd" clip-rule="evenodd" d="M11.5151 4.14222C11.2257 3.91422 10.8071 3.96622 10.5797 4.25622L5.87639 10.2615L3.62372 7.46355C3.39172 7.17755 2.97305 7.13088 2.68639 7.36222C2.39905 7.59355 2.35439 8.01355 2.58439 8.29955L5.36372 11.7515C5.49105 11.9089 5.68172 12.0002 5.88372 12.0002H5.88839C6.09105 11.9989 6.28305 11.9049 6.40839 11.7442L11.6291 5.07755C11.8564 4.78822 11.8057 4.36888 11.5151 4.14222ZM14.8484 4.14222C14.5584 3.91422 14.1404 3.96622 13.9131 4.25622L9.20972 10.2615L8.80705 9.76222L7.96372 10.8402L8.69705 11.7515C8.82439 11.9089 9.01505 12.0002 9.21705 12.0002H9.22172C9.42439 11.9989 9.61639 11.9049 9.74172 11.7442L14.9624 5.07755C15.1897 4.78822 15.1391 4.36888 14.8484 4.14222ZM7.09085 7.62995L6.24619 8.70728L5.91819 8.29995C5.68752 8.01328 5.73219 7.59328 6.01952 7.36195C6.30685 7.13128 6.72619 7.17728 6.95685 7.46395L7.09085 7.62995Z" fill="white"/>
</mask>
<g mask="url(#mask0_22448_111121)">
<rect x="0.4375" width="16" height="16" fill="#9A9A9A"/>
</g>
</svg>
