<svg width="29" height="29" viewBox="0 0 29 29" fill="none"
    xmlns="http://www.w3.org/2000/svg">
    <path fill-rule="evenodd" clip-rule="evenodd" d="M11.2283 25.3753C9.22729 25.3753 7.32538 24.5706 5.87296 23.1097C2.98746 20.2061 2.86904 15.6023 5.60834 12.8461L14.5331 3.8682C15.4623 2.93295 16.7165 2.41699 18.0638 2.41699C19.5054 2.41699 20.8756 2.99578 21.9208 4.04703C24.0004 6.13866 24.0801 9.46278 22.0972 11.4565L13.1616 20.4332C12.5828 21.0169 11.8035 21.3371 10.9673 21.3371C10.084 21.3371 9.24663 20.9842 8.61104 20.345C7.33867 19.063 7.29879 17.0197 8.52284 15.7872L16.7697 7.50408C17.241 7.03041 18.0046 7.02799 18.4783 7.49924C18.9508 7.97049 18.9532 8.73537 18.4819 9.20783L10.2363 17.4922C9.94625 17.7846 9.98613 18.3005 10.3257 18.6413C10.5021 18.8189 10.7365 18.9204 10.9673 18.9204C11.1002 18.9204 11.2911 18.8878 11.4482 18.7295L20.3838 9.75278C21.4315 8.69791 21.3529 6.90353 20.2074 5.75078C19.1115 4.64878 17.2518 4.56178 16.2465 5.57195L7.32175 14.5499C5.5165 16.366 5.63492 19.4424 7.58759 21.406C8.58204 22.4077 9.87496 22.9587 11.2283 22.9587C12.4378 22.9587 13.5592 22.5019 14.3833 21.673L23.3092 12.6951C23.7792 12.2226 24.5441 12.219 25.0178 12.6902C25.4903 13.1615 25.4927 13.9252 25.0226 14.3988L16.0967 23.3767C14.8158 24.6648 13.0867 25.3753 11.2283 25.3753Z" fill="#9A9A9A"/>
    <mask id="mask0_13654_13184" style="mask-type:alpha" maskUnits="userSpaceOnUse" x="3" y="2" width="23" height="24">
        <path fill-rule="evenodd" clip-rule="evenodd" d="M11.2283 25.3753C9.22729 25.3753 7.32538 24.5706 5.87296 23.1097C2.98746 20.2061 2.86904 15.6023 5.60834 12.8461L14.5331 3.8682C15.4623 2.93295 16.7165 2.41699 18.0638 2.41699C19.5054 2.41699 20.8756 2.99578 21.9208 4.04703C24.0004 6.13866 24.0801 9.46278 22.0972 11.4565L13.1616 20.4332C12.5828 21.0169 11.8035 21.3371 10.9673 21.3371C10.084 21.3371 9.24663 20.9842 8.61104 20.345C7.33867 19.063 7.29879 17.0197 8.52284 15.7872L16.7697 7.50408C17.241 7.03041 18.0046 7.02799 18.4783 7.49924C18.9508 7.97049 18.9532 8.73537 18.4819 9.20783L10.2363 17.4922C9.94625 17.7846 9.98613 18.3005 10.3257 18.6413C10.5021 18.8189 10.7365 18.9204 10.9673 18.9204C11.1002 18.9204 11.2911 18.8878 11.4482 18.7295L20.3838 9.75278C21.4315 8.69791 21.3529 6.90353 20.2074 5.75078C19.1115 4.64878 17.2518 4.56178 16.2465 5.57195L7.32175 14.5499C5.5165 16.366 5.63492 19.4424 7.58759 21.406C8.58204 22.4077 9.87496 22.9587 11.2283 22.9587C12.4378 22.9587 13.5592 22.5019 14.3833 21.673L23.3092 12.6951C23.7792 12.2226 24.5441 12.219 25.0178 12.6902C25.4903 13.1615 25.4927 13.9252 25.0226 14.3988L16.0967 23.3767C14.8158 24.6648 13.0867 25.3753 11.2283 25.3753Z" fill="white"/>
    </mask>
</svg>
