<svg width="17" height="16" viewBox="0 0 17 16" fill="none" xmlns="http://www.w3.org/2000/svg">
<path fill-rule="evenodd" clip-rule="evenodd" d="M7.01293 11.9999C6.82893 11.9999 6.65293 11.9239 6.52693 11.7899L3.28493 8.33725C3.03226 8.06925 3.04626 7.64725 3.31426 7.39525C3.58293 7.14325 4.00493 7.15658 4.25626 7.42458L7.00626 10.3519L12.6116 4.21725C12.8609 3.94458 13.2823 3.92658 13.5543 4.17458C13.8256 4.42258 13.8443 4.84458 13.5963 5.11591L7.50493 11.7826C7.38026 11.9199 7.20293 11.9986 7.01759 11.9999H7.01293Z" fill="#9A9A9A"/>
<mask id="mask0_22448_142391" style="mask-type:luminance" maskUnits="userSpaceOnUse" x="3" y="4" width="11" height="8">
<path fill-rule="evenodd" clip-rule="evenodd" d="M7.01293 11.9999C6.82893 11.9999 6.65293 11.9239 6.52693 11.7899L3.28493 8.33725C3.03226 8.06925 3.04626 7.64725 3.31426 7.39525C3.58293 7.14325 4.00493 7.15658 4.25626 7.42458L7.00626 10.3519L12.6116 4.21725C12.8609 3.94458 13.2823 3.92658 13.5543 4.17458C13.8256 4.42258 13.8443 4.84458 13.5963 5.11591L7.50493 11.7826C7.38026 11.9199 7.20293 11.9986 7.01759 11.9999H7.01293Z" fill="white"/>
</mask>
<g mask="url(#mask0_22448_142391)">
<rect x="0.4375" width="16" height="16" fill="#9A9A9A"/>
</g>
</svg>
