<svg width="17" height="17" viewBox="0 0 17 17" fill="none"
    xmlns="http://www.w3.org/2000/svg">
    <path fill-rule="evenodd" clip-rule="evenodd" d="M3.4681 8.50038C3.4681 7.26972 3.89143 6.13905 4.59343 5.23572L12.0661 12.7084C11.1628 13.4111 10.0321 13.8337 8.80143 13.8337C5.86077 13.8337 3.4681 11.4411 3.4681 8.50038ZM14.1348 8.50004C14.1348 9.73071 13.7114 10.8614 13.0094 11.7647L5.53677 4.29204C6.4401 3.58937 7.57077 3.16671 8.80143 3.16671C11.7421 3.16671 14.1348 5.55937 14.1348 8.50004ZM8.80143 1.83337C5.12543 1.83337 2.13477 4.82404 2.13477 8.50004C2.13477 12.176 5.12543 15.1667 8.80143 15.1667C12.4774 15.1667 15.4681 12.176 15.4681 8.50004C15.4681 4.82404 12.4774 1.83337 8.80143 1.83337Z" fill="#9A9A9A"/>
    <mask id="mask0_13869_74789" style="mask-type:alpha" maskUnits="userSpaceOnUse" x="2" y="1" width="14" height="15">
        <path fill-rule="evenodd" clip-rule="evenodd" d="M3.4681 8.50038C3.4681 7.26972 3.89143 6.13905 4.59343 5.23572L12.0661 12.7084C11.1628 13.4111 10.0321 13.8337 8.80143 13.8337C5.86077 13.8337 3.4681 11.4411 3.4681 8.50038ZM14.1348 8.50004C14.1348 9.73071 13.7114 10.8614 13.0094 11.7647L5.53677 4.29204C6.4401 3.58937 7.57077 3.16671 8.80143 3.16671C11.7421 3.16671 14.1348 5.55937 14.1348 8.50004ZM8.80143 1.83337C5.12543 1.83337 2.13477 4.82404 2.13477 8.50004C2.13477 12.176 5.12543 15.1667 8.80143 15.1667C12.4774 15.1667 15.4681 12.176 15.4681 8.50004C15.4681 4.82404 12.4774 1.83337 8.80143 1.83337Z" fill="white"/>
    </mask>
</svg>
