<svg width="20" height="21" viewBox="0 0 20 21" fill="none" xmlns="http://www.w3.org/2000/svg">
<path d="M11.967 11.8584C11.4099 12.3075 10.7159 12.5524 10.0003 12.5524C9.28475 12.5524 8.59073 12.3075 8.03366 11.8584C7.86348 11.7169 7.64408 11.6489 7.42373 11.6692C7.20337 11.6895 7.00011 11.7965 6.85866 11.9667C6.71721 12.1369 6.64916 12.3563 6.66948 12.5766C6.6898 12.797 6.79681 13.0002 6.967 13.1417C7.81811 13.8522 8.89163 14.2414 10.0003 14.2414C11.109 14.2414 12.1825 13.8522 13.0337 13.1417C13.2038 13.0002 13.3109 12.797 13.3312 12.5766C13.3515 12.3563 13.2834 12.1369 13.142 11.9667C13.072 11.8824 12.986 11.8128 12.8891 11.7617C12.7921 11.7107 12.686 11.6792 12.5769 11.6692C12.3566 11.6489 12.1372 11.7169 11.967 11.8584ZM7.50033 9.16669C7.66515 9.16669 7.82626 9.11781 7.9633 9.02625C8.10035 8.93468 8.20716 8.80453 8.27023 8.65226C8.3333 8.49999 8.3498 8.33243 8.31765 8.17078C8.2855 8.00913 8.20613 7.86064 8.08958 7.7441C7.97304 7.62755 7.82455 7.54819 7.6629 7.51603C7.50125 7.48388 7.3337 7.50038 7.18143 7.56345C7.02915 7.62653 6.89901 7.73334 6.80744 7.87038C6.71587 8.00742 6.667 8.16854 6.667 8.33335C6.667 8.55437 6.75479 8.76633 6.91107 8.92261C7.06735 9.07889 7.27931 9.16669 7.50033 9.16669ZM12.5003 7.50002C12.3355 7.50002 12.1744 7.54889 12.0374 7.64046C11.9003 7.73203 11.7935 7.86218 11.7304 8.01445C11.6674 8.16672 11.6509 8.33428 11.683 8.49593C11.7152 8.65758 11.7945 8.80607 11.9111 8.92261C12.0276 9.03915 12.1761 9.11852 12.3378 9.15068C12.4994 9.18283 12.667 9.16633 12.8192 9.10325C12.9715 9.04018 13.1017 8.93337 13.1932 8.79633C13.2848 8.65929 13.3337 8.49817 13.3337 8.33335C13.3337 8.11234 13.2459 7.90038 13.0896 7.7441C12.9333 7.58782 12.7213 7.50002 12.5003 7.50002ZM10.0003 1.66669C8.35215 1.66669 6.74099 2.15543 5.37058 3.07111C4.00017 3.98679 2.93206 5.28827 2.30133 6.81099C1.6706 8.33371 1.50558 10.0093 1.82712 11.6258C2.14866 13.2423 2.94234 14.7271 4.10777 15.8926C5.27321 17.058 6.75807 17.8517 8.37458 18.1732C9.99109 18.4948 11.6666 18.3297 13.1894 17.699C14.7121 17.0683 16.0136 16.0002 16.9292 14.6298C17.8449 13.2594 18.3337 11.6482 18.3337 10C18.3337 8.90567 18.1181 7.82204 17.6993 6.81099C17.2805 5.79994 16.6667 4.88129 15.8929 4.10746C15.1191 3.33364 14.2004 2.71981 13.1894 2.30102C12.1783 1.88224 11.0947 1.66669 10.0003 1.66669ZM10.0003 16.6667C8.68179 16.6667 7.39286 16.2757 6.29653 15.5432C5.2002 14.8106 4.34572 13.7694 3.84113 12.5512C3.33655 11.3331 3.20453 9.99263 3.46176 8.69942C3.719 7.40621 4.35393 6.21833 5.28628 5.28598C6.21863 4.35363 7.40652 3.71869 8.69973 3.46145C9.99293 3.20422 11.3334 3.33624 12.5516 3.84082C13.7697 4.34541 14.8109 5.19989 15.5435 6.29622C16.276 7.39255 16.667 8.68148 16.667 10C16.667 11.7681 15.9646 13.4638 14.7144 14.7141C13.4641 15.9643 11.7684 16.6667 10.0003 16.6667Z"  fill="#ff00ff" fill-rule="evenodd" clip-rule="evenodd"/>
</svg>
